<svg xmlns="http://www.w3.org/2000/svg" width="120" height="120" viewBox="0 0 120 120">
  <!-- 背景圆形 -->
  <circle cx="60" cy="60" r="55" fill="#2563eb"/>
  
  <!-- 云朵形状 -->
  <g fill="white">
    <path d="M45,85 C35,85 28,77 28,68 C28,60 35,52 45,52 C47,52 49,53 51,54 C50,50 48,45 52,40 C54,37 57,35 60,35 C64,35 67,37 69,40 C73,45 71,50 70,54 C72,53 74,52 76,52 C86,52 93,60 93,68 C93,77 86,85 76,85 L45,85 Z"/>
  </g>
  
  <!-- 下降的水滴 -->
  <path d="M60,85 C60,85 60,95 60,100 C57,100 55,98 55,95 C55,90 60,85 60,85 Z" fill="white"/>
  
  <!-- 装饰元素 -->
  <circle cx="45" cy="62" r="3" fill="#1d4ed8" opacity="0.5"/>
  <circle cx="60" cy="62" r="3" fill="#1d4ed8" opacity="0.5"/>
  <circle cx="75" cy="62" r="3" fill="#1d4ed8" opacity="0.5"/>
</svg>